<svg xmlns="http://www.w3.org/2000/svg" width="1280" height="620" viewBox="0 0 1280 620" font-family="Noto Sans CJK TC, PingFang TC, Microsoft JhengHei, sans-serif"><rect width="100%" height="100%" fill="#ffffff"/><clipPath id="plot"><rect x="64" y="40" width="1196" height="450"/></clipPath><text x="640.0" y="20" font-size="15" font-weight="bold" fill="#222" text-anchor="middle">台指期 5 分K 2026-07-09：WANG 無遮蔽訊號（移植程式實跑）</text><line x1="64" y1="416.2" x2="1260" y2="416.2" stroke="#e4e4e4"/><text x="58" y="420.2" fill="#666" font-size="11" text-anchor="end">45400</text><line x1="64" y1="328.4" x2="1260" y2="328.4" stroke="#e4e4e4"/><text x="58" y="332.4" fill="#666" font-size="11" text-anchor="end">45600</text><line x1="64" y1="240.6" x2="1260" y2="240.6" stroke="#e4e4e4"/><text x="58" y="244.6" fill="#666" font-size="11" text-anchor="end">45800</text><line x1="64" y1="152.9" x2="1260" y2="152.9" stroke="#e4e4e4"/><text x="58" y="156.9" fill="#666" font-size="11" text-anchor="end">46000</text><line x1="64" y1="65.1" x2="1260" y2="65.1" stroke="#e4e4e4"/><text x="58" y="69.1" fill="#666" font-size="11" text-anchor="end">46200</text><text x="74.0" y="506" fill="#666" font-size="11" text-anchor="middle">08:45</text><text x="193.6" y="506" fill="#666" font-size="11" text-anchor="middle">09:15</text><text x="313.2" y="506" fill="#666" font-size="11" text-anchor="middle">09:45</text><text x="432.8" y="506" fill="#666" font-size="11" text-anchor="middle">10:15</text><text x="552.4" y="506" fill="#666" font-size="11" text-anchor="middle">10:45</text><text x="672.0" y="506" fill="#666" font-size="11" text-anchor="middle">11:15</text><text x="791.6" y="506" fill="#666" font-size="11" text-anchor="middle">11:45</text><text x="911.2" y="506" fill="#666" font-size="11" text-anchor="middle">12:15</text><text x="1030.8" y="506" fill="#666" font-size="11" text-anchor="middle">12:45</text><text x="1150.4" y="506" fill="#666" font-size="11" text-anchor="middle">13:15</text><rect x="283.3" y="40" width="19.9" height="450" fill="#fff4c2"/><rect x="343.1" y="40" width="19.9" height="450" fill="#fff4c2"/><rect x="402.9" y="40" width="19.9" height="450" fill="#fff4c2"/><rect x="482.6" y="40" width="19.9" height="450" fill="#fff4c2"/><rect x="542.4" y="40" width="19.9" height="450" fill="#fff4c2"/><rect x="701.9" y="40" width="19.9" height="450" fill="#fff4c2"/><rect x="781.6" y="40" width="19.9" height="450" fill="#fff4c2"/><rect x="921.1" y="40" width="19.9" height="450" fill="#fff4c2"/><rect x="1100.5" y="40" width="19.9" height="450" fill="#fff4c2"/><rect x="1180.3" y="40" width="19.9" height="450" fill="#fff4c2"/><rect x="1240.1" y="40" width="19.9" height="450" fill="#fff4c2"/><line x1="74.0" y1="133.6" x2="74.0" y2="179.2" stroke="#1a8f4c" stroke-width="1.2"/><rect x="68.0" y="149.4" width="12.0" height="7.0" fill="#1a8f4c" stroke="#1a8f4c" stroke-width="1.2"/><line x1="93.9" y1="126.1" x2="93.9" y2="243.7" stroke="#1a8f4c" stroke-width="1.2"/><rect x="87.9" y="153.3" width="12.0" height="90.0" fill="#1a8f4c" stroke="#1a8f4c" stroke-width="1.2"/><line x1="113.8" y1="209.1" x2="113.8" y2="249.9" stroke="#d0312d" stroke-width="1.2"/><rect x="107.9" y="235.8" width="12.0" height="6.6" fill="#fff" stroke="#d0312d" stroke-width="1.2"/><line x1="133.8" y1="200.3" x2="133.8" y2="309.5" stroke="#1a8f4c" stroke-width="1.2"/><rect x="127.8" y="232.3" width="12.0" height="74.2" fill="#1a8f4c" stroke="#1a8f4c" stroke-width="1.2"/><line x1="153.7" y1="231.0" x2="153.7" y2="324.0" stroke="#d0312d" stroke-width="1.2"/><rect x="147.7" y="232.7" width="12.0" height="72.4" fill="#fff" stroke="#d0312d" stroke-width="1.2"/><line x1="173.6" y1="210.8" x2="173.6" y2="289.4" stroke="#1a8f4c" stroke-width="1.2"/><rect x="167.7" y="232.3" width="12.0" height="38.6" fill="#1a8f4c" stroke="#1a8f4c" stroke-width="1.2"/><line x1="193.6" y1="236.3" x2="193.6" y2="294.2" stroke="#d0312d" stroke-width="1.2"/><rect x="187.6" y="239.3" width="12.0" height="29.0" fill="#fff" stroke="#d0312d" stroke-width="1.2"/><line x1="213.5" y1="206.4" x2="213.5" y2="262.6" stroke="#1a8f4c" stroke-width="1.2"/><rect x="207.5" y="239.8" width="12.0" height="9.7" fill="#1a8f4c" stroke="#1a8f4c" stroke-width="1.2"/><line x1="233.4" y1="219.6" x2="233.4" y2="276.6" stroke="#d0312d" stroke-width="1.2"/><rect x="227.5" y="219.6" width="12.0" height="21.5" fill="#fff" stroke="#d0312d" stroke-width="1.2"/><line x1="253.4" y1="187.1" x2="253.4" y2="263.9" stroke="#d0312d" stroke-width="1.2"/><rect x="247.4" y="201.6" width="12.0" height="17.1" fill="#fff" stroke="#d0312d" stroke-width="1.2"/><line x1="273.3" y1="175.7" x2="273.3" y2="207.3" stroke="#d0312d" stroke-width="1.2"/><rect x="267.3" y="188.0" width="12.0" height="13.2" fill="#fff" stroke="#d0312d" stroke-width="1.2"/><line x1="293.2" y1="111.2" x2="293.2" y2="199.8" stroke="#d0312d" stroke-width="1.2"/><rect x="287.3" y="117.3" width="12.0" height="69.8" fill="#fff" stroke="#d0312d" stroke-width="1.2"/><line x1="313.2" y1="83.5" x2="313.2" y2="150.2" stroke="#d0312d" stroke-width="1.2"/><rect x="307.2" y="93.6" width="12.0" height="23.7" fill="#fff" stroke="#d0312d" stroke-width="1.2"/><line x1="333.1" y1="88.8" x2="333.1" y2="228.4" stroke="#1a8f4c" stroke-width="1.2"/><rect x="327.1" y="93.2" width="12.0" height="122.4" fill="#1a8f4c" stroke="#1a8f4c" stroke-width="1.2"/><line x1="353.0" y1="218.3" x2="353.0" y2="317.4" stroke="#1a8f4c" stroke-width="1.2"/><rect x="347.1" y="218.3" width="12.0" height="79.4" fill="#1a8f4c" stroke="#1a8f4c" stroke-width="1.2"/><line x1="373.0" y1="270.0" x2="373.0" y2="337.2" stroke="#d0312d" stroke-width="1.2"/><rect x="367.0" y="292.4" width="12.0" height="7.0" fill="#fff" stroke="#d0312d" stroke-width="1.2"/><line x1="392.9" y1="205.1" x2="392.9" y2="293.3" stroke="#d0312d" stroke-width="1.2"/><rect x="386.9" y="205.1" width="12.0" height="83.8" fill="#fff" stroke="#d0312d" stroke-width="1.2"/><line x1="412.8" y1="152.0" x2="412.8" y2="216.5" stroke="#d0312d" stroke-width="1.2"/><rect x="406.9" y="157.3" width="12.0" height="49.1" fill="#fff" stroke="#d0312d" stroke-width="1.2"/><line x1="432.8" y1="130.1" x2="432.8" y2="198.1" stroke="#d0312d" stroke-width="1.2"/><rect x="426.8" y="132.7" width="12.0" height="25.5" fill="#fff" stroke="#d0312d" stroke-width="1.2"/><line x1="452.7" y1="105.9" x2="452.7" y2="161.7" stroke="#1a8f4c" stroke-width="1.2"/><rect x="446.7" y="134.0" width="12.0" height="27.6" fill="#1a8f4c" stroke="#1a8f4c" stroke-width="1.2"/><line x1="472.6" y1="133.1" x2="472.6" y2="196.8" stroke="#1a8f4c" stroke-width="1.2"/><rect x="466.7" y="158.1" width="12.0" height="29.0" fill="#1a8f4c" stroke="#1a8f4c" stroke-width="1.2"/><line x1="492.6" y1="162.1" x2="492.6" y2="244.2" stroke="#1a8f4c" stroke-width="1.2"/><rect x="486.6" y="188.0" width="12.0" height="48.3" fill="#1a8f4c" stroke="#1a8f4c" stroke-width="1.2"/><line x1="512.5" y1="233.6" x2="512.5" y2="293.7" stroke="#1a8f4c" stroke-width="1.2"/><rect x="506.5" y="236.7" width="12.0" height="23.7" fill="#1a8f4c" stroke="#1a8f4c" stroke-width="1.2"/><line x1="532.4" y1="255.6" x2="532.4" y2="334.1" stroke="#1a8f4c" stroke-width="1.2"/><rect x="526.5" y="260.0" width="12.0" height="72.4" fill="#1a8f4c" stroke="#1a8f4c" stroke-width="1.2"/><line x1="552.4" y1="326.2" x2="552.4" y2="394.2" stroke="#1a8f4c" stroke-width="1.2"/><rect x="546.4" y="330.2" width="12.0" height="33.8" fill="#1a8f4c" stroke="#1a8f4c" stroke-width="1.2"/><line x1="572.3" y1="342.0" x2="572.3" y2="401.7" stroke="#1a8f4c" stroke-width="1.2"/><rect x="566.3" y="363.1" width="12.0" height="4.4" fill="#1a8f4c" stroke="#1a8f4c" stroke-width="1.2"/><line x1="592.2" y1="354.7" x2="592.2" y2="400.8" stroke="#1a8f4c" stroke-width="1.2"/><rect x="586.3" y="367.9" width="12.0" height="17.6" fill="#1a8f4c" stroke="#1a8f4c" stroke-width="1.2"/><line x1="612.2" y1="370.1" x2="612.2" y2="407.4" stroke="#1a8f4c" stroke-width="1.2"/><rect x="606.2" y="381.1" width="12.0" height="6.6" fill="#1a8f4c" stroke="#1a8f4c" stroke-width="1.2"/><line x1="632.1" y1="359.1" x2="632.1" y2="396.9" stroke="#d0312d" stroke-width="1.2"/><rect x="626.1" y="385.9" width="12.0" height="6.6" fill="#fff" stroke="#d0312d" stroke-width="1.2"/><line x1="652.0" y1="386.3" x2="652.0" y2="439.4" stroke="#1a8f4c" stroke-width="1.2"/><rect x="646.1" y="386.3" width="12.0" height="39.9" fill="#1a8f4c" stroke="#1a8f4c" stroke-width="1.2"/><line x1="672.0" y1="407.4" x2="672.0" y2="446.5" stroke="#d0312d" stroke-width="1.2"/><rect x="666.0" y="407.8" width="12.0" height="18.9" fill="#fff" stroke="#d0312d" stroke-width="1.2"/><line x1="691.9" y1="350.4" x2="691.9" y2="421.9" stroke="#d0312d" stroke-width="1.2"/><rect x="685.9" y="350.4" width="12.0" height="59.2" fill="#fff" stroke="#d0312d" stroke-width="1.2"/><line x1="711.8" y1="306.9" x2="711.8" y2="352.5" stroke="#d0312d" stroke-width="1.2"/><rect x="705.9" y="315.7" width="12.0" height="32.9" fill="#fff" stroke="#d0312d" stroke-width="1.2"/><line x1="731.8" y1="270.5" x2="731.8" y2="328.4" stroke="#d0312d" stroke-width="1.2"/><rect x="725.8" y="287.6" width="12.0" height="27.2" fill="#fff" stroke="#d0312d" stroke-width="1.2"/><line x1="751.7" y1="260.0" x2="751.7" y2="302.5" stroke="#d0312d" stroke-width="1.2"/><rect x="745.7" y="270.9" width="12.0" height="16.7" fill="#fff" stroke="#d0312d" stroke-width="1.2"/><line x1="771.6" y1="255.6" x2="771.6" y2="284.5" stroke="#d0312d" stroke-width="1.2"/><rect x="765.7" y="255.6" width="12.0" height="15.4" fill="#fff" stroke="#d0312d" stroke-width="1.2"/><line x1="791.6" y1="213.0" x2="791.6" y2="258.6" stroke="#d0312d" stroke-width="1.2"/><rect x="785.6" y="232.3" width="12.0" height="24.6" fill="#fff" stroke="#d0312d" stroke-width="1.2"/><line x1="811.5" y1="213.9" x2="811.5" y2="239.8" stroke="#d0312d" stroke-width="1.2"/><rect x="805.5" y="216.5" width="12.0" height="16.7" fill="#fff" stroke="#d0312d" stroke-width="1.2"/><line x1="831.4" y1="194.1" x2="831.4" y2="231.9" stroke="#1a8f4c" stroke-width="1.2"/><rect x="825.5" y="216.5" width="12.0" height="6.1" fill="#1a8f4c" stroke="#1a8f4c" stroke-width="1.2"/><line x1="851.4" y1="194.1" x2="851.4" y2="227.5" stroke="#d0312d" stroke-width="1.2"/><rect x="845.4" y="204.7" width="12.0" height="17.6" fill="#fff" stroke="#d0312d" stroke-width="1.2"/><line x1="871.3" y1="183.6" x2="871.3" y2="228.4" stroke="#1a8f4c" stroke-width="1.2"/><rect x="865.3" y="204.7" width="12.0" height="1.3" fill="#1a8f4c" stroke="#1a8f4c" stroke-width="1.2"/><line x1="891.2" y1="199.4" x2="891.2" y2="229.7" stroke="#1a8f4c" stroke-width="1.2"/><rect x="885.3" y="207.7" width="12.0" height="21.9" fill="#1a8f4c" stroke="#1a8f4c" stroke-width="1.2"/><line x1="911.2" y1="213.9" x2="911.2" y2="254.7" stroke="#1a8f4c" stroke-width="1.2"/><rect x="905.2" y="228.8" width="12.0" height="23.7" fill="#1a8f4c" stroke="#1a8f4c" stroke-width="1.2"/><line x1="931.1" y1="238.5" x2="931.1" y2="287.6" stroke="#1a8f4c" stroke-width="1.2"/><rect x="925.1" y="252.9" width="12.0" height="34.2" fill="#1a8f4c" stroke="#1a8f4c" stroke-width="1.2"/><line x1="951.0" y1="280.1" x2="951.0" y2="321.4" stroke="#1a8f4c" stroke-width="1.2"/><rect x="945.1" y="282.8" width="12.0" height="33.8" fill="#1a8f4c" stroke="#1a8f4c" stroke-width="1.2"/><line x1="971.0" y1="231.4" x2="971.0" y2="319.2" stroke="#d0312d" stroke-width="1.2"/><rect x="965.0" y="248.1" width="12.0" height="68.0" fill="#fff" stroke="#d0312d" stroke-width="1.2"/><line x1="990.9" y1="227.5" x2="990.9" y2="254.7" stroke="#d0312d" stroke-width="1.2"/><rect x="984.9" y="235.8" width="12.0" height="11.4" fill="#fff" stroke="#d0312d" stroke-width="1.2"/><line x1="1010.8" y1="227.5" x2="1010.8" y2="269.6" stroke="#1a8f4c" stroke-width="1.2"/><rect x="1004.9" y="235.8" width="12.0" height="14.9" fill="#1a8f4c" stroke="#1a8f4c" stroke-width="1.2"/><line x1="1030.8" y1="248.5" x2="1030.8" y2="282.8" stroke="#1a8f4c" stroke-width="1.2"/><rect x="1024.8" y="251.2" width="12.0" height="17.6" fill="#1a8f4c" stroke="#1a8f4c" stroke-width="1.2"/><line x1="1050.7" y1="232.7" x2="1050.7" y2="272.2" stroke="#d0312d" stroke-width="1.2"/><rect x="1044.7" y="232.7" width="12.0" height="37.7" fill="#fff" stroke="#d0312d" stroke-width="1.2"/><line x1="1070.6" y1="229.7" x2="1070.6" y2="267.0" stroke="#1a8f4c" stroke-width="1.2"/><rect x="1064.7" y="233.2" width="12.0" height="23.7" fill="#1a8f4c" stroke="#1a8f4c" stroke-width="1.2"/><line x1="1090.6" y1="238.0" x2="1090.6" y2="298.6" stroke="#1a8f4c" stroke-width="1.2"/><rect x="1084.6" y="260.8" width="12.0" height="30.7" fill="#1a8f4c" stroke="#1a8f4c" stroke-width="1.2"/><line x1="1110.5" y1="285.0" x2="1110.5" y2="331.9" stroke="#1a8f4c" stroke-width="1.2"/><rect x="1104.5" y="286.3" width="12.0" height="39.5" fill="#1a8f4c" stroke="#1a8f4c" stroke-width="1.2"/><line x1="1130.4" y1="239.3" x2="1130.4" y2="326.2" stroke="#d0312d" stroke-width="1.2"/><rect x="1124.5" y="282.3" width="12.0" height="43.9" fill="#fff" stroke="#d0312d" stroke-width="1.2"/><line x1="1150.4" y1="277.9" x2="1150.4" y2="343.8" stroke="#1a8f4c" stroke-width="1.2"/><rect x="1144.4" y="281.0" width="12.0" height="59.2" fill="#1a8f4c" stroke="#1a8f4c" stroke-width="1.2"/><line x1="1170.3" y1="328.4" x2="1170.3" y2="364.4" stroke="#1a8f4c" stroke-width="1.2"/><rect x="1164.3" y="338.5" width="12.0" height="11.8" fill="#1a8f4c" stroke="#1a8f4c" stroke-width="1.2"/><line x1="1190.2" y1="345.5" x2="1190.2" y2="375.4" stroke="#1a8f4c" stroke-width="1.2"/><rect x="1184.3" y="350.4" width="12.0" height="22.8" fill="#1a8f4c" stroke="#1a8f4c" stroke-width="1.2"/><line x1="1210.2" y1="353.4" x2="1210.2" y2="421.4" stroke="#d0312d" stroke-width="1.2"/><rect x="1204.2" y="364.0" width="12.0" height="6.6" fill="#fff" stroke="#d0312d" stroke-width="1.2"/><line x1="1230.1" y1="335.9" x2="1230.1" y2="366.6" stroke="#d0312d" stroke-width="1.2"/><rect x="1224.1" y="340.3" width="12.0" height="22.8" fill="#fff" stroke="#d0312d" stroke-width="1.2"/><line x1="1250.0" y1="285.8" x2="1250.0" y2="348.2" stroke="#d0312d" stroke-width="1.2"/><rect x="1244.1" y="294.2" width="12.0" height="46.1" fill="#fff" stroke="#d0312d" stroke-width="1.2"/><polyline points="83.9,243.7 103.9,243.7 103.9,243.7 123.8,243.7 123.8,249.9 143.7,249.9 143.7,309.5 163.7,309.5 163.7,324.0 183.6,324.0 183.6,324.0 203.5,324.0 203.5,324.0 223.5,324.0 223.5,324.0 243.4,324.0 243.4,324.0 263.3,324.0 263.3,324.0 283.3,324.0 283.3,199.8 303.2,199.8 323.1,150.2 343.1,150.2 343.1,228.4 363.0,228.4 382.9,293.3 402.9,293.3 402.9,216.5 422.8,216.5 442.7,161.7 462.7,161.7 462.7,161.7 482.6,161.7 482.6,196.8 502.5,196.8 522.5,293.7 542.4,293.7 542.4,334.1 562.3,334.1 582.3,401.7 602.2,401.7 602.2,401.7 622.1,401.7 622.1,407.4 642.1,407.4 642.1,407.4 662.0,407.4 662.0,439.4 681.9,439.4 681.9,446.5 701.9,446.5 701.9,352.5 721.8,352.5 741.7,302.5 761.7,302.5 761.7,284.5 781.6,284.5 781.6,258.6 801.5,258.6 821.5,231.9 841.4,231.9 841.4,227.5 861.3,227.5 861.3,228.4 881.3,228.4 881.3,228.4 901.2,228.4 901.2,229.7 921.1,229.7 921.1,254.7 941.1,254.7 961.0,319.2 980.9,319.2 980.9,254.7 1000.9,254.7 1000.9,254.7 1020.8,254.7 1020.8,269.6 1040.7,269.6 1040.7,282.8 1060.7,282.8 1060.7,282.8 1080.6,282.8 1080.6,282.8 1100.5,282.8 1100.5,298.6 1120.5,298.6 1140.4,326.2 1160.3,326.2 1160.3,343.8 1180.3,343.8 1180.3,364.4 1200.2,364.4 1220.1,366.6 1240.1,366.6 1240.1,348.2 1260.0,348.2" fill="none" stroke="#1f5fbf" stroke-width="1.6"/><polyline points="83.9,126.1 103.9,126.1 103.9,209.1 123.8,209.1 123.8,200.3 143.7,200.3 143.7,231.0 163.7,231.0 163.7,231.0 183.6,231.0 183.6,210.8 203.5,210.8 203.5,210.8 223.5,210.8 223.5,206.4 243.4,206.4 243.4,206.4 263.3,206.4 263.3,187.1 283.3,187.1 283.3,175.7 303.2,175.7 323.1,88.8 343.1,88.8 343.1,218.3 363.0,218.3 382.9,270.0 402.9,270.0 402.9,205.1 422.8,205.1 442.7,130.1 462.7,130.1 462.7,105.9 482.6,105.9 482.6,162.1 502.5,162.1 522.5,255.6 542.4,255.6 542.4,326.2 562.3,326.2 582.3,342.0 602.2,342.0 602.2,370.1 622.1,370.1 622.1,370.1 642.1,370.1 642.1,386.3 662.0,386.3 662.0,407.4 681.9,407.4 681.9,407.4 701.9,407.4 701.9,350.4 721.8,350.4 741.7,270.5 761.7,270.5 761.7,260.0 781.6,260.0 781.6,255.6 801.5,255.6 821.5,213.9 841.4,213.9 841.4,194.1 861.3,194.1 861.3,194.1 881.3,194.1 881.3,183.6 901.2,183.6 901.2,213.9 921.1,213.9 921.1,238.5 941.1,238.5 961.0,280.1 980.9,280.1 980.9,231.4 1000.9,231.4 1000.9,227.5 1020.8,227.5 1020.8,227.5 1040.7,227.5 1040.7,227.5 1060.7,227.5 1060.7,227.5 1080.6,227.5 1080.6,227.5 1100.5,227.5 1100.5,285.0 1120.5,285.0 1140.4,277.9 1160.3,277.9 1160.3,328.4 1180.3,328.4 1180.3,345.5 1200.2,345.5 1220.1,353.4 1240.1,353.4 1240.1,335.9 1260.0,335.9" fill="none" stroke="#b8651a" stroke-width="1.6"/><polyline points="74.0,309.1 93.9,290.4 113.8,265.8 133.8,243.2 153.7,232.4 173.6,235.2 193.6,245.0 213.5,252.4 233.4,253.9 253.4,249.6 273.3,240.9 293.2,227.5 313.2,208.2 333.1,186.8 353.0,172.9 373.0,174.9 392.9,193.0 412.8,216.1 432.8,228.2 452.7,221.2 472.6,201.4 492.6,183.1 512.5,178.0 532.4,189.9 552.4,217.1 572.3,252.9 592.2,290.7 612.2,324.7 632.1,350.6 652.0,369.0 672.0,382.2 691.9,391.0 711.8,393.3 731.8,385.9 751.7,367.6 771.6,341.7 791.6,313.9 811.5,288.5 831.4,266.9 851.4,248.9 871.3,234.2 891.2,223.7 911.2,218.6 931.1,220.1 951.0,229.5 971.0,244.0 990.9,257.6 1010.8,265.4 1030.8,265.8 1050.7,261.1 1070.6,256.1 1090.6,254.5 1110.5,257.7 1130.4,264.8 1150.4,275.7 1170.3,289.4 1190.2,304.4 1210.2,320.5 1230.1,335.7 1250.0,345.9" fill="none" stroke="#6a5acd" stroke-width="1.2" stroke-dasharray="3,3" clip-path="url(#plot)"/><polyline points="74.0,326.1 93.9,312.4 113.8,299.3 133.8,287.2 153.7,276.3 173.6,266.5 193.6,259.2 213.5,253.8 233.4,250.3 253.4,247.3 273.3,243.7 293.2,237.6 313.2,227.9 333.1,217.7 353.0,210.9 373.0,207.4 392.9,205.3 412.8,203.7 432.8,202.5 452.7,201.3 472.6,200.2 492.6,199.5 512.5,199.9 532.4,202.8 552.4,210.3 572.3,222.3 592.2,238.7 612.2,258.9 632.1,281.0 652.0,304.2 672.0,326.8 691.9,345.5 711.8,358.4 731.8,365.2 751.7,365.8 771.6,360.7 791.6,350.2 811.5,335.5 831.4,318.2 851.4,299.9 871.3,281.7 891.2,265.4 911.2,252.3 931.1,243.7 951.0,240.1 971.0,239.8 990.9,241.0 1010.8,243.9 1030.8,248.0 1050.7,251.5 1070.6,253.8 1090.6,256.1 1110.5,259.3 1130.4,262.3 1150.4,266.5 1170.3,273.1 1190.2,281.9 1210.2,292.7 1230.1,303.5 1250.0,312.9" fill="none" stroke="#999" stroke-width="1.2" stroke-dasharray="3,3" clip-path="url(#plot)"/><line x1="64.0" y1="40" x2="64.0" y2="490" stroke="#bbb" stroke-dasharray="2,3"/><polygon points="286.2,219.8 300.2,219.8 293.2,207.8" fill="#d0312d"/><line x1="303.2" y1="40" x2="303.2" y2="490" stroke="#bbb" stroke-dasharray="2,3"/><polygon points="346.0,198.3 360.0,198.3 353.0,210.3" fill="#1a8f4c"/><line x1="363.0" y1="40" x2="363.0" y2="490" stroke="#bbb" stroke-dasharray="2,3"/><polygon points="405.8,236.5 419.8,236.5 412.8,224.5" fill="#d0312d"/><line x1="422.8" y1="40" x2="422.8" y2="490" stroke="#bbb" stroke-dasharray="2,3"/><polygon points="485.6,142.1 499.6,142.1 492.6,154.1" fill="#1a8f4c"/><line x1="502.5" y1="40" x2="502.5" y2="490" stroke="#bbb" stroke-dasharray="2,3"/><polygon points="545.4,306.2 559.4,306.2 552.4,318.2" fill="#1a8f4c"/><line x1="562.3" y1="40" x2="562.3" y2="490" stroke="#bbb" stroke-dasharray="2,3"/><polygon points="704.8,372.5 718.8,372.5 711.8,360.5" fill="#d0312d"/><line x1="721.8" y1="40" x2="721.8" y2="490" stroke="#bbb" stroke-dasharray="2,3"/><polygon points="784.6,278.6 798.6,278.6 791.6,266.6" fill="#d0312d"/><line x1="801.5" y1="40" x2="801.5" y2="490" stroke="#bbb" stroke-dasharray="2,3"/><polygon points="924.1,218.5 938.1,218.5 931.1,230.5" fill="#1a8f4c"/><line x1="941.1" y1="40" x2="941.1" y2="490" stroke="#bbb" stroke-dasharray="2,3"/><polygon points="1103.5,265.0 1117.5,265.0 1110.5,277.0" fill="#1a8f4c"/><line x1="1120.5" y1="40" x2="1120.5" y2="490" stroke="#bbb" stroke-dasharray="2,3"/><polygon points="1183.2,325.5 1197.2,325.5 1190.2,337.5" fill="#1a8f4c"/><line x1="1200.2" y1="40" x2="1200.2" y2="490" stroke="#bbb" stroke-dasharray="2,3"/><polygon points="1243.0,368.2 1257.0,368.2 1250.0,356.2" fill="#d0312d"/><line x1="80" y1="528" x2="104" y2="528" stroke="#1f5fbf" stroke-width="2"/><text x="110.0" y="532.0" fill="#666" font-size="11" text-anchor="start" font-weight="normal">無遮蔽線（空）＝檢查當下的 WANG_unshielded_line_short</text><line x1="80" y1="546" x2="104" y2="546" stroke="#b8651a" stroke-width="2"/><text x="110.0" y="550.0" fill="#666" font-size="11" text-anchor="start" font-weight="normal">無遮蔽線（多）＝檢查當下的 WANG_unshielded_line_long</text><line x1="80" y1="564" x2="104" y2="564" stroke="#6a5acd" stroke-width="2" stroke-dasharray="3,3"/><text x="110.0" y="568.0" fill="#666" font-size="11" text-anchor="start" font-weight="normal">ALMA 15（只畫圖，不參與訊號）</text><line x1="680" y1="528" x2="704" y2="528" stroke="#999" stroke-width="2" stroke-dasharray="3,3"/><text x="710.0" y="532.0" fill="#666" font-size="11" text-anchor="start" font-weight="normal">ALMA 30（只畫圖，不參與訊號）</text><line x1="680" y1="546" x2="704" y2="546" stroke="#bbb" stroke-width="2" stroke-dasharray="2,3"/><text x="710.0" y="550.0" fill="#666" font-size="11" text-anchor="start" font-weight="normal">灰色直虛線＝狀態重設（每日第一根／訊號後下一根）</text><text x="680.0" y="568.0" fill="#666" font-size="11" text-anchor="start" font-weight="normal">▼綠＝空單訊號　▲紅＝多單訊號（黃底為訊號K）</text></svg>